<svg xmlns="http://www.w3.org/2000/svg" viewBox="0 0 64 64">
  <defs>
    <linearGradient id="vikpix-favicon-gradient" x1="5" y1="8" x2="59" y2="56" gradientUnits="userSpaceOnUse">
      <stop offset="0" stop-color="#13a8ff"/>
      <stop offset="1" stop-color="#13d8c8"/>
    </linearGradient>
  </defs>
  <rect width="64" height="64" rx="12" fill="#0b0d0e"/>
  <g fill="none" stroke="url(#vikpix-favicon-gradient)" stroke-linecap="round" stroke-linejoin="round">
    <path d="M5 23h10" stroke-width="5"/>
    <path d="M3 32h15" stroke-width="5"/>
    <path d="M8 41h11" stroke-width="5"/>
    <path d="M24 10h11c5.4 0 8.7 2.5 10.7 7.4L53 36c3.2 8.1-2.4 16-11.1 16H33" stroke-width="8"/>
    <path d="M25 23l10.5 25.5L25 57" stroke-width="8"/>
  </g>
  <path fill="url(#vikpix-favicon-gradient)" d="M41 25.3c0-2.4 2.7-3.8 4.7-2.5l9.3 6.3c1.8 1.2 1.8 3.8 0 5l-9.3 6.3c-2 1.3-4.7-.1-4.7-2.5V25.3Z"/>
</svg>
